<svg width="182" height="182" viewBox="0 0 182 182" fill="none" xmlns="http://www.w3.org/2000/svg">
<g clip-path="url(#clip0_30_13)">
<mask id="path-1-outside-1_30_13" maskUnits="userSpaceOnUse" x="0" y="6" width="182" height="170" fill="black">
<rect fill="white" y="6" width="182" height="170"/>
<path d="M70.4886 90.8864C70.4886 97.2311 69.286 102.629 66.8807 107.08C64.4943 111.53 61.2367 114.93 57.108 117.278C52.9981 119.608 48.3769 120.773 43.2443 120.773C38.0739 120.773 33.4337 119.598 29.3239 117.25C25.214 114.902 21.9659 111.502 19.5795 107.051C17.1932 102.6 16 97.2121 16 90.8864C16 84.5417 17.1932 79.1439 19.5795 74.6932C21.9659 70.2424 25.214 66.8523 29.3239 64.5227C33.4337 62.1742 38.0739 61 43.2443 61C48.3769 61 52.9981 62.1742 57.108 64.5227C61.2367 66.8523 64.4943 70.2424 66.8807 74.6932C69.286 79.1439 70.4886 84.5417 70.4886 90.8864ZM58.017 90.8864C58.017 86.7765 57.4015 83.3106 56.1705 80.4886C54.9583 77.6667 53.2443 75.5265 51.0284 74.0682C48.8125 72.6099 46.2178 71.8807 43.2443 71.8807C40.2708 71.8807 37.6761 72.6099 35.4602 74.0682C33.2443 75.5265 31.5208 77.6667 30.2898 80.4886C29.0777 83.3106 28.4716 86.7765 28.4716 90.8864C28.4716 94.9962 29.0777 98.4621 30.2898 101.284C31.5208 104.106 33.2443 106.246 35.4602 107.705C37.6761 109.163 40.2708 109.892 43.2443 109.892C46.2178 109.892 48.8125 109.163 51.0284 107.705C53.2443 106.246 54.9583 104.106 56.1705 101.284C57.4015 98.4621 58.017 94.9962 58.017 90.8864Z"/>
<path d="M165.245 90.8864C165.245 97.2311 164.042 102.629 161.637 107.08C159.251 111.53 155.993 114.93 151.864 117.278C147.754 119.608 143.133 120.773 138.001 120.773C132.83 120.773 128.19 119.598 124.08 117.25C119.97 114.902 116.722 111.502 114.336 107.051C111.949 102.6 110.756 97.2121 110.756 90.8864C110.756 84.5417 111.949 79.1439 114.336 74.6932C116.722 70.2424 119.97 66.8523 124.08 64.5227C128.19 62.1742 132.83 61 138.001 61C143.133 61 147.754 62.1742 151.864 64.5227C155.993 66.8523 159.251 70.2424 161.637 74.6932C164.042 79.1439 165.245 84.5417 165.245 90.8864ZM152.773 90.8864C152.773 86.7765 152.158 83.3106 150.927 80.4886C149.715 77.6667 148.001 75.5265 145.785 74.0682C143.569 72.6099 140.974 71.8807 138.001 71.8807C135.027 71.8807 132.432 72.6099 130.216 74.0682C128.001 75.5265 126.277 77.6667 125.046 80.4886C123.834 83.3106 123.228 86.7765 123.228 90.8864C123.228 94.9962 123.834 98.4621 125.046 101.284C126.277 104.106 128.001 106.246 130.216 107.705C132.432 109.163 135.027 109.892 138.001 109.892C140.974 109.892 143.569 109.163 145.785 107.705C148.001 106.246 149.715 104.106 150.927 101.284C152.158 98.4621 152.773 94.9962 152.773 90.8864Z"/>
<path d="M117.867 51.8864C117.867 58.2311 116.664 63.6288 114.259 68.0795C111.872 72.5303 108.615 75.9299 104.486 78.2784C100.376 80.608 95.755 81.7727 90.6224 81.7727C85.452 81.7727 80.8118 80.5985 76.702 78.25C72.5921 75.9015 69.344 72.5019 66.9577 68.0511C64.5713 63.6004 63.3781 58.2121 63.3781 51.8864C63.3781 45.5417 64.5713 40.1439 66.9577 35.6932C69.344 31.2424 72.5921 27.8523 76.702 25.5227C80.8118 23.1742 85.452 22 90.6224 22C95.755 22 100.376 23.1742 104.486 25.5227C108.615 27.8523 111.872 31.2424 114.259 35.6932C116.664 40.1439 117.867 45.5417 117.867 51.8864ZM105.395 51.8864C105.395 47.7765 104.78 44.3106 103.549 41.4886C102.336 38.6667 100.622 36.5265 98.4065 35.0682C96.1906 33.6099 93.5959 32.8807 90.6224 32.8807C87.649 32.8807 85.0543 33.6099 82.8384 35.0682C80.6224 36.5265 78.899 38.6667 77.6679 41.4886C76.4558 44.3106 75.8497 47.7765 75.8497 51.8864C75.8497 55.9962 76.4558 59.4621 77.6679 62.2841C78.899 65.1061 80.6224 67.2462 82.8384 68.7045C85.0543 70.1629 87.649 70.892 90.6224 70.892C93.5959 70.892 96.1906 70.1629 98.4065 68.7045C100.622 67.2462 102.336 65.1061 103.549 62.2841C104.78 59.4621 105.395 55.9962 105.395 51.8864Z"/>
<path d="M116.947 121.165H104.504C104.277 119.555 103.813 118.125 103.112 116.875C102.411 115.606 101.511 114.527 100.413 113.636C99.3144 112.746 98.0455 112.064 96.6061 111.591C95.1857 111.117 93.6421 110.881 91.9754 110.881C88.9641 110.881 86.341 111.629 84.1061 113.125C81.8713 114.602 80.1383 116.761 78.9072 119.602C77.6762 122.424 77.0607 125.852 77.0607 129.886C77.0607 134.034 77.6762 137.519 78.9072 140.341C80.1572 143.163 81.8997 145.294 84.1345 146.733C86.3694 148.172 88.9546 148.892 91.8902 148.892C93.5379 148.892 95.0626 148.674 96.4641 148.239C97.8845 147.803 99.144 147.169 100.242 146.335C101.341 145.483 102.25 144.451 102.97 143.239C103.708 142.027 104.22 140.644 104.504 139.091L116.947 139.148C116.625 141.818 115.82 144.394 114.532 146.875C113.263 149.337 111.549 151.544 109.39 153.494C107.25 155.426 104.693 156.96 101.72 158.097C98.7652 159.214 95.4224 159.773 91.6913 159.773C86.5019 159.773 81.8618 158.598 77.7709 156.25C73.6989 153.902 70.4792 150.502 68.1118 146.051C65.7633 141.6 64.5891 136.212 64.5891 129.886C64.5891 123.542 65.7822 118.144 68.1686 113.693C70.555 109.242 73.7936 105.852 77.8845 103.523C81.9754 101.174 86.5777 100 91.6913 100C95.0625 100 98.1875 100.473 101.066 101.42C103.964 102.367 106.53 103.75 108.765 105.568C111 107.367 112.818 109.574 114.22 112.188C115.64 114.801 116.549 117.794 116.947 121.165Z"/>
</mask>
<path d="M70.4886 90.8864C70.4886 97.2311 69.286 102.629 66.8807 107.08C64.4943 111.53 61.2367 114.93 57.108 117.278C52.9981 119.608 48.3769 120.773 43.2443 120.773C38.0739 120.773 33.4337 119.598 29.3239 117.25C25.214 114.902 21.9659 111.502 19.5795 107.051C17.1932 102.6 16 97.2121 16 90.8864C16 84.5417 17.1932 79.1439 19.5795 74.6932C21.9659 70.2424 25.214 66.8523 29.3239 64.5227C33.4337 62.1742 38.0739 61 43.2443 61C48.3769 61 52.9981 62.1742 57.108 64.5227C61.2367 66.8523 64.4943 70.2424 66.8807 74.6932C69.286 79.1439 70.4886 84.5417 70.4886 90.8864ZM58.017 90.8864C58.017 86.7765 57.4015 83.3106 56.1705 80.4886C54.9583 77.6667 53.2443 75.5265 51.0284 74.0682C48.8125 72.6099 46.2178 71.8807 43.2443 71.8807C40.2708 71.8807 37.6761 72.6099 35.4602 74.0682C33.2443 75.5265 31.5208 77.6667 30.2898 80.4886C29.0777 83.3106 28.4716 86.7765 28.4716 90.8864C28.4716 94.9962 29.0777 98.4621 30.2898 101.284C31.5208 104.106 33.2443 106.246 35.4602 107.705C37.6761 109.163 40.2708 109.892 43.2443 109.892C46.2178 109.892 48.8125 109.163 51.0284 107.705C53.2443 106.246 54.9583 104.106 56.1705 101.284C57.4015 98.4621 58.017 94.9962 58.017 90.8864Z" fill="white"/>
<path d="M165.245 90.8864C165.245 97.2311 164.042 102.629 161.637 107.08C159.251 111.53 155.993 114.93 151.864 117.278C147.754 119.608 143.133 120.773 138.001 120.773C132.83 120.773 128.19 119.598 124.08 117.25C119.97 114.902 116.722 111.502 114.336 107.051C111.949 102.6 110.756 97.2121 110.756 90.8864C110.756 84.5417 111.949 79.1439 114.336 74.6932C116.722 70.2424 119.97 66.8523 124.08 64.5227C128.19 62.1742 132.83 61 138.001 61C143.133 61 147.754 62.1742 151.864 64.5227C155.993 66.8523 159.251 70.2424 161.637 74.6932C164.042 79.1439 165.245 84.5417 165.245 90.8864ZM152.773 90.8864C152.773 86.7765 152.158 83.3106 150.927 80.4886C149.715 77.6667 148.001 75.5265 145.785 74.0682C143.569 72.6099 140.974 71.8807 138.001 71.8807C135.027 71.8807 132.432 72.6099 130.216 74.0682C128.001 75.5265 126.277 77.6667 125.046 80.4886C123.834 83.3106 123.228 86.7765 123.228 90.8864C123.228 94.9962 123.834 98.4621 125.046 101.284C126.277 104.106 128.001 106.246 130.216 107.705C132.432 109.163 135.027 109.892 138.001 109.892C140.974 109.892 143.569 109.163 145.785 107.705C148.001 106.246 149.715 104.106 150.927 101.284C152.158 98.4621 152.773 94.9962 152.773 90.8864Z" fill="white"/>
<path d="M117.867 51.8864C117.867 58.2311 116.664 63.6288 114.259 68.0795C111.872 72.5303 108.615 75.9299 104.486 78.2784C100.376 80.608 95.755 81.7727 90.6224 81.7727C85.452 81.7727 80.8118 80.5985 76.702 78.25C72.5921 75.9015 69.344 72.5019 66.9577 68.0511C64.5713 63.6004 63.3781 58.2121 63.3781 51.8864C63.3781 45.5417 64.5713 40.1439 66.9577 35.6932C69.344 31.2424 72.5921 27.8523 76.702 25.5227C80.8118 23.1742 85.452 22 90.6224 22C95.755 22 100.376 23.1742 104.486 25.5227C108.615 27.8523 111.872 31.2424 114.259 35.6932C116.664 40.1439 117.867 45.5417 117.867 51.8864ZM105.395 51.8864C105.395 47.7765 104.78 44.3106 103.549 41.4886C102.336 38.6667 100.622 36.5265 98.4065 35.0682C96.1906 33.6099 93.5959 32.8807 90.6224 32.8807C87.649 32.8807 85.0543 33.6099 82.8384 35.0682C80.6224 36.5265 78.899 38.6667 77.6679 41.4886C76.4558 44.3106 75.8497 47.7765 75.8497 51.8864C75.8497 55.9962 76.4558 59.4621 77.6679 62.2841C78.899 65.1061 80.6224 67.2462 82.8384 68.7045C85.0543 70.1629 87.649 70.892 90.6224 70.892C93.5959 70.892 96.1906 70.1629 98.4065 68.7045C100.622 67.2462 102.336 65.1061 103.549 62.2841C104.78 59.4621 105.395 55.9962 105.395 51.8864Z" fill="white"/>
<path d="M116.947 121.165H104.504C104.277 119.555 103.813 118.125 103.112 116.875C102.411 115.606 101.511 114.527 100.413 113.636C99.3144 112.746 98.0455 112.064 96.6061 111.591C95.1857 111.117 93.6421 110.881 91.9754 110.881C88.9641 110.881 86.341 111.629 84.1061 113.125C81.8713 114.602 80.1383 116.761 78.9072 119.602C77.6762 122.424 77.0607 125.852 77.0607 129.886C77.0607 134.034 77.6762 137.519 78.9072 140.341C80.1572 143.163 81.8997 145.294 84.1345 146.733C86.3694 148.172 88.9546 148.892 91.8902 148.892C93.5379 148.892 95.0626 148.674 96.4641 148.239C97.8845 147.803 99.144 147.169 100.242 146.335C101.341 145.483 102.25 144.451 102.97 143.239C103.708 142.027 104.22 140.644 104.504 139.091L116.947 139.148C116.625 141.818 115.82 144.394 114.532 146.875C113.263 149.337 111.549 151.544 109.39 153.494C107.25 155.426 104.693 156.96 101.72 158.097C98.7652 159.214 95.4224 159.773 91.6913 159.773C86.5019 159.773 81.8618 158.598 77.7709 156.25C73.6989 153.902 70.4792 150.502 68.1118 146.051C65.7633 141.6 64.5891 136.212 64.5891 129.886C64.5891 123.542 65.7822 118.144 68.1686 113.693C70.555 109.242 73.7936 105.852 77.8845 103.523C81.9754 101.174 86.5777 100 91.6913 100C95.0625 100 98.1875 100.473 101.066 101.42C103.964 102.367 106.53 103.75 108.765 105.568C111 107.367 112.818 109.574 114.22 112.188C115.64 114.801 116.549 117.794 116.947 121.165Z" fill="white"/>
<path d="M70.4886 90.8864C70.4886 97.2311 69.286 102.629 66.8807 107.08C64.4943 111.53 61.2367 114.93 57.108 117.278C52.9981 119.608 48.3769 120.773 43.2443 120.773C38.0739 120.773 33.4337 119.598 29.3239 117.25C25.214 114.902 21.9659 111.502 19.5795 107.051C17.1932 102.6 16 97.2121 16 90.8864C16 84.5417 17.1932 79.1439 19.5795 74.6932C21.9659 70.2424 25.214 66.8523 29.3239 64.5227C33.4337 62.1742 38.0739 61 43.2443 61C48.3769 61 52.9981 62.1742 57.108 64.5227C61.2367 66.8523 64.4943 70.2424 66.8807 74.6932C69.286 79.1439 70.4886 84.5417 70.4886 90.8864ZM58.017 90.8864C58.017 86.7765 57.4015 83.3106 56.1705 80.4886C54.9583 77.6667 53.2443 75.5265 51.0284 74.0682C48.8125 72.6099 46.2178 71.8807 43.2443 71.8807C40.2708 71.8807 37.6761 72.6099 35.4602 74.0682C33.2443 75.5265 31.5208 77.6667 30.2898 80.4886C29.0777 83.3106 28.4716 86.7765 28.4716 90.8864C28.4716 94.9962 29.0777 98.4621 30.2898 101.284C31.5208 104.106 33.2443 106.246 35.4602 107.705C37.6761 109.163 40.2708 109.892 43.2443 109.892C46.2178 109.892 48.8125 109.163 51.0284 107.705C53.2443 106.246 54.9583 104.106 56.1705 101.284C57.4015 98.4621 58.017 94.9962 58.017 90.8864Z" stroke="black" stroke-width="32" mask="url(#path-1-outside-1_30_13)"/>
<path d="M165.245 90.8864C165.245 97.2311 164.042 102.629 161.637 107.08C159.251 111.53 155.993 114.93 151.864 117.278C147.754 119.608 143.133 120.773 138.001 120.773C132.83 120.773 128.19 119.598 124.08 117.25C119.97 114.902 116.722 111.502 114.336 107.051C111.949 102.6 110.756 97.2121 110.756 90.8864C110.756 84.5417 111.949 79.1439 114.336 74.6932C116.722 70.2424 119.97 66.8523 124.08 64.5227C128.19 62.1742 132.83 61 138.001 61C143.133 61 147.754 62.1742 151.864 64.5227C155.993 66.8523 159.251 70.2424 161.637 74.6932C164.042 79.1439 165.245 84.5417 165.245 90.8864ZM152.773 90.8864C152.773 86.7765 152.158 83.3106 150.927 80.4886C149.715 77.6667 148.001 75.5265 145.785 74.0682C143.569 72.6099 140.974 71.8807 138.001 71.8807C135.027 71.8807 132.432 72.6099 130.216 74.0682C128.001 75.5265 126.277 77.6667 125.046 80.4886C123.834 83.3106 123.228 86.7765 123.228 90.8864C123.228 94.9962 123.834 98.4621 125.046 101.284C126.277 104.106 128.001 106.246 130.216 107.705C132.432 109.163 135.027 109.892 138.001 109.892C140.974 109.892 143.569 109.163 145.785 107.705C148.001 106.246 149.715 104.106 150.927 101.284C152.158 98.4621 152.773 94.9962 152.773 90.8864Z" stroke="black" stroke-width="32" mask="url(#path-1-outside-1_30_13)"/>
<path d="M117.867 51.8864C117.867 58.2311 116.664 63.6288 114.259 68.0795C111.872 72.5303 108.615 75.9299 104.486 78.2784C100.376 80.608 95.755 81.7727 90.6224 81.7727C85.452 81.7727 80.8118 80.5985 76.702 78.25C72.5921 75.9015 69.344 72.5019 66.9577 68.0511C64.5713 63.6004 63.3781 58.2121 63.3781 51.8864C63.3781 45.5417 64.5713 40.1439 66.9577 35.6932C69.344 31.2424 72.5921 27.8523 76.702 25.5227C80.8118 23.1742 85.452 22 90.6224 22C95.755 22 100.376 23.1742 104.486 25.5227C108.615 27.8523 111.872 31.2424 114.259 35.6932C116.664 40.1439 117.867 45.5417 117.867 51.8864ZM105.395 51.8864C105.395 47.7765 104.78 44.3106 103.549 41.4886C102.336 38.6667 100.622 36.5265 98.4065 35.0682C96.1906 33.6099 93.5959 32.8807 90.6224 32.8807C87.649 32.8807 85.0543 33.6099 82.8384 35.0682C80.6224 36.5265 78.899 38.6667 77.6679 41.4886C76.4558 44.3106 75.8497 47.7765 75.8497 51.8864C75.8497 55.9962 76.4558 59.4621 77.6679 62.2841C78.899 65.1061 80.6224 67.2462 82.8384 68.7045C85.0543 70.1629 87.649 70.892 90.6224 70.892C93.5959 70.892 96.1906 70.1629 98.4065 68.7045C100.622 67.2462 102.336 65.1061 103.549 62.2841C104.78 59.4621 105.395 55.9962 105.395 51.8864Z" stroke="black" stroke-width="32" mask="url(#path-1-outside-1_30_13)"/>
<path d="M116.947 121.165H104.504C104.277 119.555 103.813 118.125 103.112 116.875C102.411 115.606 101.511 114.527 100.413 113.636C99.3144 112.746 98.0455 112.064 96.6061 111.591C95.1857 111.117 93.6421 110.881 91.9754 110.881C88.9641 110.881 86.341 111.629 84.1061 113.125C81.8713 114.602 80.1383 116.761 78.9072 119.602C77.6762 122.424 77.0607 125.852 77.0607 129.886C77.0607 134.034 77.6762 137.519 78.9072 140.341C80.1572 143.163 81.8997 145.294 84.1345 146.733C86.3694 148.172 88.9546 148.892 91.8902 148.892C93.5379 148.892 95.0626 148.674 96.4641 148.239C97.8845 147.803 99.144 147.169 100.242 146.335C101.341 145.483 102.25 144.451 102.97 143.239C103.708 142.027 104.22 140.644 104.504 139.091L116.947 139.148C116.625 141.818 115.82 144.394 114.532 146.875C113.263 149.337 111.549 151.544 109.39 153.494C107.25 155.426 104.693 156.96 101.72 158.097C98.7652 159.214 95.4224 159.773 91.6913 159.773C86.5019 159.773 81.8618 158.598 77.7709 156.25C73.6989 153.902 70.4792 150.502 68.1118 146.051C65.7633 141.6 64.5891 136.212 64.5891 129.886C64.5891 123.542 65.7822 118.144 68.1686 113.693C70.555 109.242 73.7936 105.852 77.8845 103.523C81.9754 101.174 86.5777 100 91.6913 100C95.0625 100 98.1875 100.473 101.066 101.42C103.964 102.367 106.53 103.75 108.765 105.568C111 107.367 112.818 109.574 114.22 112.188C115.64 114.801 116.549 117.794 116.947 121.165Z" stroke="black" stroke-width="32" mask="url(#path-1-outside-1_30_13)"/>
</g>
<defs>
<clipPath id="clip0_30_13">
<rect width="181.25" height="181.25" fill="white"/>
</clipPath>
</defs>
</svg>
